<svg height="512" viewBox="0 0 192 192" width="512" xmlns="http://www.w3.org/2000/svg"><path d="m109 55.193a15.93 15.93 0 0 1 -2.731.646 178.036 178.036 0 0 1 -23.342 1.451c-15.03 0-33.8-1.781-49.985-8.685a39.991 39.991 0 0 0 76.058 6.588z"/><path d="m82.927 49.29a169.857 169.857 0 0 0 22.205-1.371 8 8 0 0 0 6.868-7.919 47.4 47.4 0 0 0 -4.845-19.578c-6.585-13.169-19.069-20.422-35.155-20.422-14.422 0-22.193 5.181-28.437 9.344-5.579 3.719-9.985 6.656-19.563 6.656a8 8 0 0 0 -5.657 13.657c16.394 16.394 44.744 19.633 64.584 19.633z"/><path d="m128 112a40 40 0 1 0 40 40 40.045 40.045 0 0 0 -40-40zm6.656 52.438a8 8 0 0 1 -10.234 2.717l-16-8 7.156-14.31 9.683 4.841 12.083-18.123 13.312 8.875z"/><path d="m80 152a47.991 47.991 0 0 1 46.994-47.975 32.058 32.058 0 0 0 -30.994-24.025h-48a32.036 32.036 0 0 0 -32 32v72a8 8 0 0 0 8 8h77.471a47.948 47.948 0 0 1 -21.471-40z"/></svg>