<svg xmlns="http://www.w3.org/2000/svg"  viewBox="0 0 64 64" width="64px" height="64px"><path fill="#8d6c9f" d="M17.724,18c-0.034,0-0.069-0.001-0.104-0.005c-0.549-0.057-0.949-0.548-0.892-1.097 c0.068-0.663,0.161-1.339,0.276-2.01c0.698-4.074,2.17-7.781,4.146-10.437c2.12-2.85,4.597-4.193,6.979-3.787 c3.429,0.588,5.781,4.666,6.137,10.643c0.033,0.551-0.387,1.025-0.938,1.058c-0.545,0.041-1.024-0.387-1.058-0.938 c-0.29-4.849-2.089-8.381-4.479-8.791c-1.581-0.274-3.414,0.826-5.036,3.008c-1.791,2.408-3.133,5.811-3.779,9.581 c-0.109,0.633-0.194,1.259-0.258,1.877C18.665,17.617,18.23,18,17.724,18z"/><path fill="#8d6c9f" d="M24.492,15.739c-0.081,0-0.163-0.01-0.245-0.03c-0.536-0.135-0.86-0.678-0.726-1.214 c2.056-8.164,6.418-13.365,10.622-12.644c2.415,0.414,4.279,2.699,5.247,6.435c0.139,0.535-0.182,1.081-0.717,1.219 c-0.534,0.138-1.08-0.182-1.219-0.717c-0.749-2.887-2.079-4.696-3.649-4.965c-2.956-0.502-6.64,4.392-8.345,11.161 C25.346,15.437,24.939,15.739,24.492,15.739z"/><path fill="#72caaf" d="M57.631,56.087c0,0-6.351-42.98-6.386-43.289c-0.138-0.309-0.378-0.447-0.583-0.516 c-0.207,0-4.703-0.343-4.703-0.343s-3.123-3.123-3.501-3.432C42.319,8.369,42.147,8.3,42.011,8.3l-0.003,0.07 c-0.308-0.057-0.642-0.011-0.82,0.034c-0.034,0-0.687,0.207-1.751,0.549l-15.679,4.814l0.915-0.284 c-0.486,0.155-0.953,0.296-1.427,0.442l-5.608,1.722c-2.952,0.927-5.047,1.544-5.287,1.648c-1.648,0.514-1.682,0.549-1.888,2.094 C10.291,20.557,6,53.752,6,53.752L39.402,60l0.104-0.022L39.504,60L57.631,56.087z"/><path fill="#5dbc9d" d="M39.504,60l18.126-3.913c0,0-6.351-42.98-6.386-43.289c-0.138-0.309-0.378-0.447-0.583-0.516 c-0.207,0-4.703-0.343-4.703-0.343s-3.123-3.123-3.501-3.432C42.319,8.369,42.147,8.3,42.011,8.3"/><path fill="#fff" d="M32.975,22.837l-2.161,6.472c0,0-1.959-1.04-4.288-1.04c-3.478,0-3.646,2.179-3.646,2.716 c0,2.95,7.766,4.09,7.766,11.03c0,5.465-3.478,8.985-8.172,8.985c-5.672,0-8.509-3.487-8.509-3.487l1.519-4.962 c0,0,2.971,2.548,5.47,2.548c1.654,0,2.329-1.274,2.329-2.212c0-3.856-6.348-4.023-6.348-10.393c0-5.331,3.85-10.494,11.65-10.494 C31.488,21.966,32.975,22.837,32.975,22.837z"/><path fill="#8d6c9f" d="M22.474,52c-6.078,0-9.156-3.698-9.284-3.856c-0.21-0.258-0.278-0.605-0.18-0.924l1.519-4.961 c0.099-0.322,0.353-0.573,0.677-0.667c0.323-0.092,0.673-0.019,0.93,0.2c0.751,0.642,3.082,2.308,4.82,2.308 c1.314,0,1.33-1.163,1.33-1.212c0-1.153-0.799-1.854-2.211-2.994c-1.843-1.488-4.137-3.339-4.137-7.399 c0-5.536,3.958-11.494,12.65-11.494c3.083-0.012,4.718,0.87,4.894,0.974c0.408,0.239,0.593,0.731,0.443,1.18l-2.161,6.472 c-0.093,0.279-0.305,0.502-0.578,0.612c-0.274,0.109-0.58,0.092-0.84-0.045c-0.015-0.008-1.782-0.923-3.819-0.923 c-2.188,0-2.646,0.933-2.646,1.716c0,0.656,1.1,1.458,2.263,2.307c2.322,1.694,5.503,4.014,5.503,8.724 C31.646,47.894,27.874,52,22.474,52z M15.092,47.25c0.862,0.828,3.303,2.75,7.382,2.75c4.29,0,7.172-3.209,7.172-7.985 c0-3.693-2.487-5.507-4.682-7.108c-1.586-1.157-3.084-2.25-3.084-3.922c0-0.621,0.224-3.716,4.646-3.716 c1.475,0,2.806,0.372,3.683,0.694l1.52-4.552c-0.642-0.201-1.673-0.415-3.131-0.41c-7.369,0-10.662,4.768-10.662,9.494 c0,3.104,1.648,4.435,3.394,5.843c1.453,1.172,2.955,2.384,2.955,4.55c0,1.557-1.167,3.212-3.33,3.212 c-1.801,0-3.729-1.078-4.931-1.895L15.092,47.25z"/><line x1="42.011" x2="39.504" y1="8.3" y2="60" fill="#5dbc9d"/><path fill="#8d6c9f" d="M42.821,13.251c-0.017,0-0.033,0-0.049-0.001l-1.998-0.097c-0.551-0.027-0.977-0.496-0.95-1.048 c0.027-0.551,0.503-0.97,1.048-0.95l1.998,0.097c0.551,0.027,0.977,0.496,0.95,1.047C43.793,12.834,43.351,13.251,42.821,13.251 z"/><path fill="#8d6c9f" d="M42.585,18.128c-0.017,0-0.033,0-0.049-0.001l-1.998-0.097c-0.552-0.027-0.977-0.496-0.951-1.047 c0.026-0.552,0.499-0.979,1.047-0.951l1.998,0.097c0.552,0.027,0.977,0.496,0.951,1.047 C43.557,17.711,43.115,18.128,42.585,18.128z"/><path fill="#8d6c9f" d="M42.349,23.005c-0.017,0-0.033,0-0.049-0.001l-1.998-0.097c-0.552-0.027-0.977-0.496-0.951-1.047 c0.027-0.552,0.494-0.971,1.047-0.951l1.998,0.097c0.552,0.027,0.977,0.496,0.951,1.047 C43.321,22.589,42.878,23.005,42.349,23.005z"/><path fill="#8d6c9f" d="M42.112,27.883c-0.017,0-0.033,0-0.049-0.001l-1.998-0.097c-0.552-0.027-0.978-0.496-0.951-1.047 c0.027-0.552,0.505-0.979,1.047-0.951l1.998,0.097c0.552,0.027,0.978,0.496,0.951,1.047 C43.084,27.466,42.642,27.883,42.112,27.883z"/><path fill="#8d6c9f" d="M41.875,32.76c-0.017,0-0.033,0-0.049-0.001l-1.998-0.097c-0.552-0.027-0.977-0.496-0.951-1.047 s0.5-0.971,1.047-0.951l1.998,0.097c0.552,0.027,0.977,0.496,0.951,1.047C42.848,32.343,42.405,32.76,41.875,32.76z"/><path fill="#8d6c9f" d="M41.639,37.637c-0.017,0-0.033,0-0.049-0.001l-1.998-0.097c-0.552-0.027-0.977-0.496-0.951-1.047 c0.026-0.552,0.496-0.979,1.047-0.951l1.998,0.097c0.552,0.027,0.977,0.496,0.951,1.047 C42.611,37.221,42.169,37.637,41.639,37.637z"/><path fill="#8d6c9f" d="M41.403,42.515c-0.017,0-0.033,0-0.049-0.001l-1.998-0.097c-0.552-0.027-0.977-0.496-0.951-1.047 c0.027-0.552,0.491-0.971,1.047-0.951l1.998,0.097c0.552,0.027,0.977,0.496,0.951,1.047 C42.375,42.098,41.933,42.515,41.403,42.515z"/><path fill="#8d6c9f" d="M41.166,47.392c-0.017,0-0.033,0-0.049-0.001l-1.998-0.097c-0.551-0.027-0.977-0.496-0.95-1.047 c0.027-0.552,0.503-0.979,1.048-0.951l1.998,0.097c0.551,0.027,0.977,0.496,0.95,1.048 C42.138,46.976,41.696,47.392,41.166,47.392z"/><path fill="#8d6c9f" d="M40.93,52.269c-0.017,0-0.033,0-0.049-0.001l-1.998-0.097c-0.552-0.027-0.977-0.496-0.951-1.047 s0.499-0.971,1.047-0.951l1.998,0.097c0.552,0.027,0.977,0.496,0.951,1.047C41.902,51.853,41.459,52.269,40.93,52.269z"/><path fill="#8d6c9f" d="M40.693,57.146c-0.017,0-0.033,0-0.049-0.001l-1.998-0.097c-0.552-0.027-0.977-0.496-0.951-1.047 c0.027-0.552,0.494-0.979,1.047-0.951l1.998,0.097c0.552,0.027,0.977,0.496,0.951,1.047 C41.666,56.73,41.223,57.146,40.693,57.146z"/><g><path fill="#8d6c9f" d="M39.504,61c-0.033,0-0.068,0-0.103,0c-0.062,0-0.123-0.006-0.184-0.017L5.816,54.735 c-0.521-0.098-0.875-0.585-0.808-1.111c0.175-1.355,4.294-33.217,4.465-34.379c0.255-1.911,0.567-2.272,2.544-2.892 c0.21-0.081,0.686-0.227,1.894-0.598c0.896-0.275,2.071-0.635,3.427-1.061l5.907-1.813c0.063-0.019,0.126-0.039,0.189-0.058 c0.009-0.003,0.018-0.006,0.027-0.009l0.915-0.285c0.029-0.009,0.059-0.017,0.088-0.023l14.68-4.507 c1.241-0.4,1.646-0.53,1.84-0.573c0.132-0.03,0.421-0.1,0.752-0.08c0.468-0.155,1.033,0.064,1.425,0.451 c0.289,0.231,2.395,2.327,3.243,3.174c1.674,0.127,4.053,0.305,4.276,0.312c0.097,0.003,0.208,0.021,0.3,0.052 c0.544,0.183,0.952,0.548,1.178,1.057c0.042,0.093,0.068,0.192,0.08,0.294c0.083,0.633,6.319,42.83,6.382,43.256 c0.077,0.521-0.263,1.012-0.778,1.124l-18.126,3.913C39.646,60.993,39.575,61,39.504,61z M7.113,52.943l32.29,6.04 c0.033-0.003,0.066-0.005,0.099-0.005l17.003-3.67c-1.24-8.394-5.68-38.444-6.204-42.044c-0.802-0.053-2.753-0.199-4.418-0.326 c-0.238-0.018-0.462-0.121-0.631-0.29c-1.372-1.371-2.899-2.879-3.333-3.281c-0.031-0.002-0.062-0.006-0.094-0.012 C41.701,9.33,41.52,9.352,41.43,9.375c-0.012,0.003-0.023,0.005-0.035,0.008c-0.167,0.046-0.761,0.236-1.651,0.523l-15.282,4.692 c-0.211,0.066-0.421,0.13-0.631,0.194l-5.899,1.811c-1.354,0.425-2.534,0.787-3.434,1.063c-0.873,0.268-1.625,0.499-1.762,0.552 c-0.483,0.155-1.026,0.325-1.135,0.416c-0.04,0.083-0.104,0.567-0.147,0.888C11.3,20.569,7.812,47.533,7.113,52.943z"/></g></svg>